<svg xmlns="http://www.w3.org/2000/svg" width="99" height="21" viewBox="0 0 99 21" fill="none">
  <path d="M44.6155 4.94372C44.6155 5.49508 44.5965 6.32693 44.5585 7.43925C44.5205 8.55158 44.5015 9.38582 44.5015 9.94198C44.5015 10.4646 44.5062 11.2485 44.5157 12.2937C44.5252 13.3341 44.53 14.1156 44.53 14.6382C44.53 14.7964 44.4706 14.8755 44.3518 14.8755C44.2806 14.8755 44.1737 14.8683 44.0312 14.8539C43.8887 14.8396 43.7818 14.8324 43.7105 14.8324C43.6345 14.8324 43.5181 14.8396 43.3613 14.8539C43.2046 14.8683 43.0882 14.8755 43.0122 14.8755C42.9267 14.8755 42.8245 14.7964 42.7058 14.6382C41.6796 13.243 40.1238 11.1622 38.0383 8.39576C37.7153 7.97384 37.5276 7.73891 37.4754 7.69097C37.4279 7.69097 37.4041 7.78925 37.4041 7.98583C37.4041 8.72418 37.416 9.83411 37.4398 11.3156C37.4635 12.7923 37.4754 13.8998 37.4754 14.6382C37.4754 14.7964 37.4279 14.8755 37.3329 14.8755C37.2521 14.8755 37.1286 14.8683 36.9623 14.8539C36.7961 14.8396 36.6725 14.8324 36.5918 14.8324C36.5063 14.8324 36.378 14.8396 36.207 14.8539C36.0407 14.8683 35.9148 14.8755 35.8293 14.8755C35.7105 14.8755 35.6512 14.8276 35.6512 14.7317C35.6512 14.2043 35.6749 13.4108 35.7224 12.3512C35.7747 11.2868 35.8008 10.4886 35.8008 9.95637C35.8008 9.37623 35.7794 8.33103 35.7367 6.82076C35.7272 6.42761 35.7034 5.83789 35.6654 5.05159L35.6583 4.9581C35.6535 4.88618 35.7105 4.84783 35.8293 4.84303C36.1381 4.83824 36.3804 4.82865 36.5561 4.81427C36.6227 4.80947 36.7485 4.79029 36.9338 4.75673C37.0906 4.72796 37.2141 4.71358 37.3044 4.71358C37.3471 4.71358 37.4208 4.7831 37.5253 4.92214C38.6179 6.4372 40.2901 8.69062 42.5419 11.6824C42.6416 11.807 42.7343 11.9149 42.8198 12.006C42.853 11.8046 42.8697 11.3444 42.8697 10.6252C42.8697 10.0019 42.8459 9.06699 42.7984 7.82042C42.7556 6.57385 42.7343 5.64132 42.7343 5.02283C42.7343 4.86461 42.7818 4.7855 42.8768 4.7855C42.9623 4.7855 43.0906 4.79269 43.2616 4.80707C43.4373 4.82146 43.568 4.82865 43.6535 4.82865C43.7438 4.82865 43.8792 4.82146 44.0597 4.80707C44.2402 4.79269 44.3756 4.7855 44.4658 4.7855C44.5656 4.7855 44.6155 4.83824 44.6155 4.94372Z" fill="#3B3B3B"/>
  <path d="M53.0382 8.36699C53.0382 8.38617 53.0311 8.42932 53.0169 8.49644C52.8316 9.59438 52.739 10.5413 52.739 11.3372C52.739 11.3851 52.7983 12.4615 52.9171 14.5663L52.9242 14.667C52.929 14.806 52.8649 14.8755 52.7318 14.8755C52.6036 14.8755 52.4064 14.8899 52.1404 14.9187C51.8791 14.9522 51.6843 14.969 51.5561 14.969C51.4658 14.969 51.3969 14.8012 51.3494 14.4656C51.3019 14.13 51.2568 13.9622 51.214 13.9622C51.1855 13.9622 51.0573 14.0557 50.8292 14.2426C50.549 14.4728 50.2877 14.6478 50.0454 14.7676C49.6701 14.9594 49.2948 15.0553 48.9195 15.0553C47.9979 15.0553 47.2212 14.6837 46.5893 13.9406C45.9908 13.231 45.6915 12.404 45.6915 11.4594C45.6915 10.3951 45.9932 9.51527 46.5965 8.82007C47.2283 8.0961 48.0597 7.73412 49.0905 7.73412C49.8174 7.73412 50.4516 7.98822 50.9931 8.49644C51.0739 8.59233 51.1998 8.73137 51.3708 8.91356C51.3851 8.92795 51.3993 8.93514 51.4136 8.93514C51.4421 8.93514 51.4824 8.78411 51.5347 8.48206C51.5869 8.18 51.6535 8.02898 51.7342 8.02898C51.8625 8.02898 52.1024 8.06494 52.4539 8.13685C52.8435 8.22316 53.0382 8.29987 53.0382 8.36699ZM51.2212 11.3731C51.2212 10.7834 51.0478 10.2776 50.701 9.85568C50.3352 9.4002 49.8672 9.17247 49.2972 9.17247C48.7271 9.17247 48.252 9.39781 47.872 9.84849C47.5062 10.28 47.3233 10.7882 47.3233 11.3731C47.3233 11.9533 47.5062 12.4567 47.872 12.8834C48.252 13.3293 48.7271 13.5522 49.2972 13.5522C49.853 13.5522 50.3185 13.3245 50.6938 12.869C51.0454 12.4423 51.2212 11.9437 51.2212 11.3731Z" fill="#3B3B3B"/>
  <path d="M65.0382 14.6094C65.0382 14.7964 64.9836 14.8899 64.8743 14.8899C64.803 14.8899 64.6938 14.8827 64.5465 14.8683C64.404 14.8539 64.2947 14.8468 64.2187 14.8468C64.138 14.8468 64.0168 14.8516 63.8553 14.8611C63.6938 14.8707 63.5726 14.8755 63.4919 14.8755C63.3921 14.8755 63.3422 14.7629 63.3422 14.5375C63.3422 14.317 63.3494 13.9885 63.3636 13.5522C63.3826 13.1111 63.3921 12.7803 63.3921 12.5598C63.3921 11.3468 63.3874 10.6707 63.3779 10.5317C63.3399 10.0379 63.2401 9.69746 63.0786 9.51048C62.8933 9.30911 62.5631 9.20842 62.0881 9.20842C61.7888 9.20842 61.4515 9.35226 61.0762 9.63993C60.6867 9.94198 60.4848 10.2392 60.4705 10.5317C60.4515 10.9057 60.442 11.5889 60.442 12.5814C60.442 12.8163 60.4515 13.1687 60.4705 13.6385C60.4895 14.1084 60.499 14.4608 60.499 14.6957C60.499 14.8252 60.4563 14.8899 60.3708 14.8899C60.2852 14.8899 60.1593 14.8827 59.9931 14.8683C59.8316 14.8539 59.708 14.8468 59.6225 14.8468C59.5465 14.8468 59.4349 14.8516 59.2876 14.8611C59.1404 14.8707 59.0287 14.8755 58.9527 14.8755C58.8577 14.8755 58.8102 14.806 58.8102 14.667C58.8102 14.4368 58.8173 14.0916 58.8316 13.6314C58.8458 13.1663 58.8529 12.8187 58.8529 12.5885V10.8553C58.8529 10.3136 58.7888 9.9276 58.6605 9.69746C58.48 9.37144 58.1356 9.20842 57.6273 9.20842C57.328 9.20842 56.9717 9.33548 56.5584 9.58959C56.1024 9.86767 55.8743 10.1481 55.8743 10.431V12.531C55.8743 12.7707 55.8767 13.1279 55.8815 13.6026C55.8862 14.0772 55.8886 14.432 55.8886 14.667C55.8886 14.806 55.834 14.8755 55.7247 14.8755H54.3993C54.3043 14.8755 54.2568 14.8108 54.2568 14.6813C54.2568 14.293 54.2591 13.7105 54.2639 12.9338C54.2686 12.1522 54.271 11.5673 54.271 11.179C54.271 10.3016 54.1784 9.42657 53.9931 8.55398C53.9789 8.49165 53.9717 8.4413 53.9717 8.40295C53.9717 8.34062 53.9931 8.30466 54.0359 8.29507C54.2116 8.27589 54.4682 8.23994 54.8055 8.1872C54.9622 8.13925 55.1974 8.08651 55.5109 8.02898L55.5679 8.02179C55.6249 8.02179 55.6772 8.19199 55.7247 8.5324C55.777 8.86802 55.8221 9.03582 55.8601 9.03582C55.8601 9.03582 55.9789 8.93034 56.2164 8.71939C56.4967 8.47487 56.7769 8.28069 57.0572 8.13685C57.461 7.9259 57.8648 7.82042 58.2686 7.82042C59.3613 7.82042 60.0572 8.2711 60.3565 9.17247C60.651 8.78891 61.0168 8.47247 61.4539 8.22315C61.9194 7.95466 62.3802 7.82042 62.8363 7.82042C63.7151 7.82042 64.3232 8.07932 64.6605 8.59713C64.9028 8.98069 65.0239 9.58719 65.0239 10.4166C65.0239 10.5749 65.0192 10.8194 65.0097 11.1502C65.0002 11.481 64.9954 11.7255 64.9954 11.8838C64.9954 12.1858 65.0026 12.6413 65.0168 13.2502C65.0311 13.8543 65.0382 14.3074 65.0382 14.6094Z" fill="#3B3B3B"/>
  <path d="M73.3754 8.36699C73.3754 8.38617 73.3683 8.42932 73.3541 8.49644C73.1688 9.59438 73.0761 10.5413 73.0761 11.3372C73.0761 11.3851 73.1355 12.4615 73.2543 14.5663L73.2614 14.667C73.2662 14.806 73.202 14.8755 73.069 14.8755C72.9408 14.8755 72.7436 14.8899 72.4776 14.9187C72.2163 14.9522 72.0215 14.969 71.8933 14.969C71.803 14.969 71.7341 14.8012 71.6866 14.4656C71.6391 14.13 71.594 13.9622 71.5512 13.9622C71.5227 13.9622 71.3944 14.0557 71.1664 14.2426C70.8861 14.4728 70.6249 14.6478 70.3826 14.7676C70.0073 14.9594 69.632 15.0553 69.2567 15.0553C68.3351 15.0553 67.5584 14.6837 66.9265 13.9406C66.328 13.231 66.0287 12.404 66.0287 11.4594C66.0287 10.3951 66.3303 9.51527 66.9337 8.82007C67.5655 8.0961 68.3968 7.73412 69.4277 7.73412C70.1545 7.73412 70.7887 7.98822 71.3303 8.49644C71.4111 8.59233 71.537 8.73137 71.708 8.91356C71.7222 8.92795 71.7365 8.93514 71.7507 8.93514C71.7792 8.93514 71.8196 8.78411 71.8719 8.48206C71.9241 8.18 71.9906 8.02898 72.0714 8.02898C72.1997 8.02898 72.4396 8.06494 72.7911 8.13685C73.1807 8.22316 73.3754 8.29987 73.3754 8.36699ZM71.5583 11.3731C71.5583 10.7834 71.3849 10.2776 71.0382 9.85568C70.6724 9.4002 70.2044 9.17247 69.6344 9.17247C69.0643 9.17247 68.5892 9.39781 68.2092 9.84849C67.8434 10.28 67.6605 10.7882 67.6605 11.3731C67.6605 11.9533 67.8434 12.4567 68.2092 12.8834C68.5892 13.3293 69.0643 13.5522 69.6344 13.5522C70.1902 13.5522 70.6557 13.3245 71.031 12.869C71.3826 12.4423 71.5583 11.9437 71.5583 11.3731Z" fill="#3B3B3B"/>
  <path d="M82.2614 14.818C82.2614 14.8563 82.2234 14.8755 82.1474 14.8755C82.0571 14.8755 81.9193 14.8683 81.7341 14.8539C81.5488 14.8396 81.411 14.8324 81.3208 14.8324C81.221 14.8324 81.0714 14.8396 80.8718 14.8539C80.6771 14.8683 80.5298 14.8755 80.43 14.8755C80.3208 14.8755 80.2376 14.8156 80.1806 14.6957C80.0286 14.3697 79.5963 13.3605 78.8837 11.668C78.8125 11.4954 78.6391 11.3899 78.3635 11.3516C78.3018 11.3468 78.0856 11.3444 77.7151 11.3444C77.0595 11.3444 76.67 11.354 76.5464 11.3731C76.4467 11.3875 76.3968 11.5098 76.3968 11.7399C76.3968 12.0755 76.411 12.579 76.4396 13.2502C76.4728 13.9166 76.4894 14.4153 76.4894 14.7461C76.4894 14.8468 76.4419 14.8971 76.3469 14.8971C76.2519 14.8971 76.107 14.8875 75.9122 14.8683C75.7222 14.8444 75.5773 14.8324 75.4776 14.8324C75.3968 14.8324 75.2733 14.8396 75.107 14.8539C74.9407 14.8683 74.8172 14.8755 74.7365 14.8755C74.6177 14.8755 74.5583 14.8204 74.5583 14.7101C74.5583 14.1779 74.5821 13.3796 74.6296 12.3153C74.6818 11.2461 74.708 10.4454 74.708 9.91322C74.708 8.39815 74.6533 6.78241 74.5441 5.06598L74.5369 4.95091C74.5322 4.85502 74.632 4.80707 74.8362 4.80707C75.2448 4.80707 75.8552 4.79748 76.6676 4.77831C77.4847 4.75433 78.0951 4.74235 78.4989 4.74235C79.5535 4.74235 80.3991 4.99646 81.0357 5.50467C81.7388 6.06563 82.0903 6.86152 82.0903 7.89233C82.0903 8.60192 81.9953 9.16048 81.8053 9.56801C81.6058 9.99952 81.2352 10.4094 80.6937 10.7978C80.6034 10.8601 80.5583 10.9201 80.5583 10.9776C80.5583 11.0447 80.841 11.6824 81.4063 12.8906C81.9763 14.0988 82.2614 14.7413 82.2614 14.818ZM80.3089 8.29507C80.3089 7.42727 80.0619 6.84713 79.5678 6.55467C79.202 6.33892 78.5441 6.23104 77.5939 6.23104C76.8243 6.23104 76.4324 6.29337 76.4182 6.41803C76.3849 6.67693 76.3683 7.36973 76.3683 8.49644V9.87007C76.3825 9.87965 76.4134 9.88924 76.4609 9.89883C76.5464 9.90842 76.6866 9.92041 76.8814 9.93479C77.3327 9.95876 77.8196 9.97075 78.3422 9.97075C79.6533 9.97075 80.3089 9.41219 80.3089 8.29507Z" fill="#3B3B3B"/>
  <path d="M89.8219 8.35261C89.8219 8.7026 89.8076 9.2324 89.7791 9.94198C89.7506 10.6468 89.7364 11.1766 89.7364 11.5314C89.7364 11.8814 89.7459 12.4064 89.7649 13.1064C89.7887 13.8016 89.8005 14.3242 89.8005 14.6742C89.8005 14.77 89.7554 14.8324 89.6651 14.8611C89.6271 14.8707 89.1449 14.8755 88.2186 14.8755C88.1616 14.8755 88.126 14.6957 88.1117 14.3361C88.1022 13.9766 88.0761 13.7968 88.0333 13.7968C88.0096 13.7968 87.9739 13.8183 87.9264 13.8615C87.1331 14.5567 86.3492 14.9043 85.5749 14.9043C84.525 14.9043 83.8314 14.5207 83.4941 13.7536C83.2851 13.279 83.1806 12.4255 83.1806 11.1933C83.1806 10.081 83.2685 9.1389 83.4443 8.36699C83.487 8.18 83.5654 8.08651 83.6794 8.08651C83.8172 8.08651 84.0238 8.08891 84.2994 8.0937C84.5749 8.0985 84.7815 8.10089 84.9193 8.10089C85.0143 8.10089 85.0618 8.15364 85.0618 8.25911C85.0618 8.4461 85.031 8.75774 84.9692 9.19404C84.9027 9.65911 84.8671 9.98753 84.8623 10.1793C84.8481 10.467 84.8409 10.7834 84.8409 11.1286C84.8409 11.9677 84.9003 12.531 85.0191 12.8187C85.2234 13.3365 85.677 13.5954 86.3801 13.5954C86.6794 13.5954 87.0333 13.4468 87.4419 13.1495C87.8742 12.8379 88.0975 12.5382 88.1117 12.2505C88.1355 11.8909 88.1473 10.6252 88.1473 8.45329C88.1473 8.21836 88.2447 8.10089 88.4395 8.10089H89.6152C89.753 8.10089 89.8219 8.1848 89.8219 8.35261Z" fill="#3B3B3B"/>
  <path d="M96.2494 8.35261C96.2494 8.45809 96.1948 8.69302 96.0855 9.0574C95.9763 9.42178 95.9003 9.60397 95.8575 9.60397C95.6437 9.50808 95.4276 9.41219 95.209 9.3163C94.9953 9.22041 94.7601 9.17247 94.5036 9.17247C93.9193 9.17247 93.4323 9.39062 93.0428 9.82691C92.6532 10.2632 92.4585 10.7786 92.4585 11.3731C92.4585 11.9581 92.6532 12.4639 93.0428 12.8906C93.4418 13.3317 93.9288 13.5522 94.5036 13.5522C94.8219 13.5522 95.1354 13.4731 95.4442 13.3149C95.753 13.1567 95.8884 13.0776 95.8504 13.0776C95.9121 13.0776 95.981 13.279 96.057 13.6817C96.1283 14.0461 96.1639 14.2978 96.1639 14.4368C96.1639 14.5855 95.886 14.7317 95.3302 14.8755C94.8646 14.9954 94.5202 15.0553 94.2969 15.0553C93.3183 15.0553 92.4917 14.6861 91.8171 13.9478C91.1568 13.2286 90.8267 12.3704 90.8267 11.3731C90.8267 10.3567 91.1497 9.4937 91.7958 8.78411C92.4608 8.05535 93.2898 7.69097 94.2827 7.69097C94.9478 7.69097 95.5558 7.86117 96.1069 8.20158C96.2019 8.25911 96.2494 8.30946 96.2494 8.35261Z" fill="#3B3B3B"/>
  <path d="M99 6.27419C99 6.86391 98.6746 7.15878 98.0238 7.15878C97.3634 7.15878 97.0333 6.86391 97.0333 6.27419C97.0333 6.01049 97.1354 5.79234 97.3397 5.61974C97.5297 5.45673 97.7577 5.37522 98.0238 5.37522C98.2898 5.37522 98.5178 5.45913 98.7078 5.62693C98.9026 5.79474 99 6.01049 99 6.27419ZM98.9501 8.22315C98.9501 8.59233 98.9264 9.15089 98.8789 9.89883C98.8361 10.642 98.8147 11.2005 98.8147 11.5745C98.8147 11.9245 98.8219 12.4495 98.8361 13.1495C98.8504 13.8447 98.8575 14.3649 98.8575 14.7101C98.8575 14.8108 98.8147 14.8611 98.7292 14.8611H97.3397C97.2399 14.8611 97.19 14.7629 97.19 14.5663C97.19 14.2355 97.1972 13.7392 97.2114 13.0776C97.2304 12.4111 97.2399 11.9101 97.2399 11.5745C97.2399 11.2005 97.2114 10.6396 97.1544 9.89164C97.1021 9.1437 97.076 8.58274 97.076 8.20877C97.076 8.12726 97.1259 8.08651 97.2257 8.08651C97.3112 8.08651 97.4418 8.0985 97.6176 8.12247C97.7981 8.14644 97.9335 8.15843 98.0238 8.15843C98.114 8.15843 98.247 8.14644 98.4228 8.12247C98.6033 8.0985 98.7387 8.08651 98.829 8.08651C98.9097 8.08651 98.9501 8.13206 98.9501 8.22315Z" fill="#3B3B3B"/>
  <path fill-rule="evenodd" clip-rule="evenodd" d="M1.63153 0.243858C1.55229 0.578289 1.53604 1.04547 1.59173 1.38816C1.72409 2.20242 2.18902 2.93668 2.85238 3.37903C3.20355 3.61319 3.44949 3.72084 4.21447 3.97532C5.51585 4.40824 6.37955 4.65885 7.88735 5.04106C8.90209 5.29828 9.10081 5.37209 9.46815 5.62814C9.7114 5.79771 9.99712 6.09726 10.1693 6.36319C10.2407 6.4735 10.2991 6.57295 10.2991 6.58418C10.2991 6.60737 10.2043 6.62511 9.37701 6.75678C6.69706 7.18327 4.09259 7.37368 1.27301 7.34925C0.0802855 7.33889 0 7.34109 0 7.3841C0 7.46529 0.0753864 7.79436 0.133836 7.96836C0.224842 8.23929 0.442309 8.63709 0.625823 8.86838C1.11807 9.48877 1.81583 9.87008 2.62943 9.96334C2.85554 9.98926 3.00242 9.98671 3.50033 9.94828C4.9392 9.83718 6.6454 9.61773 8.07334 9.36008C9.07149 9.17997 9.38958 9.17835 9.93035 9.35068C10.1712 9.42744 10.7287 9.72208 10.6923 9.75337C10.6652 9.77664 9.82419 10.2924 9.44139 10.5205C7.47305 11.6935 5.35454 12.7571 3.25304 13.6277C3.00676 13.7297 2.79688 13.8211 2.78661 13.8308C2.7359 13.8786 3.22178 14.3655 3.52085 14.5665C4.2794 15.0764 5.26532 15.2006 6.12734 14.8948C6.55103 14.7445 8.19019 13.8919 9.49868 13.1412C10.2882 12.6883 10.5575 12.5796 11.0146 12.5293C11.3284 12.4947 11.6952 12.5177 11.6952 12.572C11.6952 12.607 11.2542 13.3264 10.8427 13.9628C10.3516 14.7221 9.67785 15.6896 9.09433 16.4734C8.90022 16.7341 8.73549 16.963 8.72822 16.9821C8.69954 17.0575 9.27202 17.1393 9.69328 17.1199C10.5797 17.0792 11.3816 16.6494 11.9114 15.9311C12.1767 15.5713 12.2831 15.334 12.8152 13.9144C12.9606 13.5262 13.0741 13.2605 13.0964 13.256C13.1274 13.2497 13.1335 13.3176 13.1322 13.6544C13.1309 14.0085 13.1386 14.0859 13.1924 14.2597C13.4119 14.9684 13.9164 15.4488 14.6275 15.626L14.8692 15.6862L14.7556 15.706C14.587 15.7353 14.307 15.8875 14.1615 16.0288C13.8795 16.3027 13.741 16.6257 13.7414 17.0087C13.7417 17.3461 13.8123 17.5352 14.1033 17.9782C14.6198 18.7646 14.9759 19.8218 15.0318 20.7343C15.0409 20.8842 15.0512 21.0038 15.0546 20.9999C15.058 20.9961 15.0744 20.8495 15.091 20.6742C15.1831 19.7031 15.5105 18.7632 16.0485 17.9251C16.2782 17.5672 16.3566 17.3723 16.3766 17.1097C16.4063 16.7189 16.2745 16.3569 15.9992 16.0736C15.8284 15.8978 15.552 15.7405 15.3546 15.7069C15.2489 15.6889 15.1817 15.6169 15.2074 15.5492C15.2146 15.5304 15.2005 15.373 15.176 15.1994L15.1315 14.8838L14.9345 14.8642C14.3842 14.8094 13.9684 14.5339 13.7394 14.0722C13.569 13.7287 13.5715 13.791 13.6463 11.7496C13.6817 10.7854 13.6639 7.2162 13.6195 6.35772C13.5762 5.52142 13.5016 5.20258 13.2487 4.77332C13.0297 4.40166 12.5858 4.00937 12.1986 3.84539C12.1028 3.80483 11.8111 3.71619 11.5503 3.64841C8.22699 2.78485 5.16662 1.66326 1.99705 0.147202L1.68932 0L1.63153 0.243858Z" fill="#3B3B3B"/>
  <path fill-rule="evenodd" clip-rule="evenodd" d="M28.4725 0.243858C28.5517 0.578289 28.568 1.04547 28.5123 1.38816C28.38 2.20242 27.915 2.93668 27.2517 3.37903C26.9005 3.61319 26.6546 3.72084 25.8896 3.97532C24.5882 4.40824 23.7245 4.65885 22.2167 5.04106C21.2019 5.29828 21.0032 5.37209 20.6359 5.62814C20.3926 5.79771 20.1069 6.09726 19.9348 6.36319C19.8634 6.4735 19.8049 6.57295 19.8049 6.58418C19.8049 6.60737 19.8998 6.62511 20.727 6.75678C23.407 7.18327 26.0114 7.37368 28.831 7.34925C30.0238 7.33889 30.104 7.34109 30.104 7.3841C30.104 7.46529 30.0287 7.79436 29.9702 7.96836C29.8792 8.23929 29.6617 8.63709 29.4782 8.86838C28.986 9.48877 28.2882 9.87008 27.4746 9.96334C27.2485 9.98926 27.1016 9.98671 26.6037 9.94828C25.1648 9.83718 23.4586 9.61773 22.0307 9.36008C21.0326 9.17997 20.7145 9.17835 20.1737 9.35068C19.9329 9.42744 19.3753 9.72208 19.4117 9.75337C19.4388 9.77664 20.2798 10.2924 20.6627 10.5205C22.631 11.6935 24.7495 12.7571 26.851 13.6277C27.0973 13.7297 27.3072 13.8211 27.3174 13.8308C27.3681 13.8786 26.8823 14.3655 26.5832 14.5665C25.8246 15.0764 24.8387 15.2006 23.9767 14.8948C23.553 14.7445 21.9139 13.8919 20.6054 13.1412C19.8158 12.6883 19.5465 12.5796 19.0894 12.5293C18.7757 12.4947 18.4089 12.5177 18.4089 12.572C18.4089 12.607 18.8498 13.3264 19.2614 13.9628C19.7524 14.7221 20.4262 15.6896 21.0097 16.4734C21.2038 16.7341 21.3686 16.963 21.3758 16.9821C21.4045 17.0575 20.832 17.1393 20.4108 17.1199C19.5243 17.0792 18.7225 16.6494 18.1927 15.9311C17.9273 15.5713 17.821 15.334 17.2889 13.9144C17.1434 13.5262 17.0299 13.2605 17.0077 13.256C16.9767 13.2497 16.9706 13.3176 16.9718 13.6544C16.9731 14.0085 16.9654 14.0859 16.9116 14.2597C16.6922 14.9684 16.1876 15.4488 15.4766 15.626L15.2349 15.6862L15.3484 15.706C15.517 15.7353 15.797 15.8875 15.9425 16.0288C16.2246 16.3027 16.3631 16.6257 16.3627 17.0087C16.3624 17.3461 16.2918 17.5352 16.0008 17.9782C15.4843 18.7646 15.1282 19.8218 15.0723 20.7343C15.0631 20.8842 15.0528 21.0038 15.0494 20.9999C15.046 20.9961 15.0297 20.8495 15.013 20.6742C14.9209 19.7031 14.5936 18.7632 14.0556 17.9251C13.8258 17.5672 13.7474 17.3723 13.7274 17.1097C13.6977 16.7189 13.8295 16.3569 14.1048 16.0736C14.2756 15.8978 14.5521 15.7405 14.7495 15.7069C14.8552 15.6889 14.9224 15.6169 14.8966 15.5492C14.8894 15.5304 14.9036 15.373 14.9281 15.1994L14.9726 14.8838L15.1696 14.8642C15.7198 14.8094 16.1356 14.5339 16.3647 14.0722C16.5351 13.7287 16.5326 13.791 16.4577 11.7496C16.4223 10.7854 16.4401 7.2162 16.4845 6.35772C16.5278 5.52142 16.6024 5.20258 16.8554 4.77332C17.0743 4.40166 17.5182 4.00937 17.9054 3.84539C18.0012 3.80483 18.293 3.71619 18.5538 3.64841C21.8771 2.78485 24.9374 1.66326 28.107 0.147202L28.4147 0L28.4725 0.243858Z" fill="#3B3B3B"/>
</svg>